<?xml version="1.0" standalone="no"?>
<!DOCTYPE svg PUBLIC "-//W3C//DTD SVG 20010904//EN"
 "http://www.w3.org/TR/2001/REC-SVG-20010904/DTD/svg10.dtd">
<svg version="1.0" xmlns="http://www.w3.org/2000/svg"
 width="512.000000pt" height="512.000000pt" viewBox="0 0 512.000000 512.000000"
 preserveAspectRatio="xMidYMid meet">
<metadata>
Created by potrace 1.11, written by Peter Selinger 2001-2013
</metadata>
<g transform="translate(0.000000,512.000000) scale(0.100000,-0.100000)"
fill="#000000" stroke="none">
<path d="M1404 4817 c-3 -8 -3 -56 -2 -107 l3 -94 46 -2 c26 -2 54 2 63 9 22
16 30 75 17 111 -10 25 -15 28 -51 24 l-40 -4 0 38 c0 27 -4 38 -15 38 -9 0
-18 -6 -21 -13z m86 -133 c0 -35 -16 -44 -38 -22 -17 17 -15 45 5 57 25 13 33
5 33 -35z"/>
<path d="M1565 4817 c-3 -7 -4 -56 -3 -108 3 -86 5 -94 23 -94 19 0 20 7 20
105 0 92 -2 105 -18 108 -9 2 -19 -3 -22 -11z"/>
<path d="M2036 4808 c-9 -12 -16 -28 -16 -34 0 -7 -6 -14 -12 -17 -10 -3 -10
-9 -1 -28 7 -13 14 -44 15 -69 3 -37 6 -45 23 -45 17 0 20 8 23 53 2 28 7 52
13 52 5 0 9 9 9 20 0 11 -4 20 -10 20 -5 0 -10 7 -10 15 0 8 7 15 16 15 24 0
12 34 -13 38 -13 2 -27 -5 -37 -20z"/>
<path d="M2535 4817 c-3 -7 -4 -56 -3 -108 3 -86 5 -94 23 -94 14 0 21 8 25
28 l5 28 18 -30 c10 -18 26 -31 38 -31 24 0 24 10 -2 54 l-21 36 22 27 22 28
-23 3 c-15 3 -29 -4 -40 -20 -18 -23 -18 -23 -21 32 -2 43 -7 56 -21 58 -9 2
-19 -3 -22 -11z"/>
<path d="M3375 4810 c-9 -15 4 -30 26 -30 12 0 19 7 19 20 0 21 -33 29 -45 10z"/>
<path d="M3130 4780 c0 -11 -7 -20 -15 -20 -8 0 -15 -7 -15 -15 0 -9 7 -18 15
-21 10 -4 15 -21 15 -54 0 -49 9 -60 51 -60 12 0 19 7 19 20 0 11 -7 20 -15
20 -10 0 -15 10 -15 34 0 21 6 36 15 40 19 7 20 36 1 36 -7 0 -16 9 -19 20 -3
11 -12 20 -21 20 -9 0 -16 -8 -16 -20z"/>
<path d="M1650 4740 c-45 -45 -13 -130 50 -130 63 0 101 75 64 128 -20 29 -85
31 -114 2z m75 -50 c0 -28 -4 -36 -22 -38 -26 -4 -39 28 -23 58 18 33 45 21
45 -20z"/>
<path d="M1810 4745 c-15 -19 -22 -156 -8 -172 17 -21 85 -16 108 7 11 11 20
24 20 29 0 21 -33 41 -68 42 l-37 1 31 7 c45 11 54 19 54 47 0 13 5 24 10 24
6 0 10 7 10 15 0 21 -102 21 -120 0z m60 -30 c0 -8 -6 -15 -14 -15 -17 0 -28
14 -19 24 12 12 33 6 33 -9z m10 -110 c0 -9 -9 -15 -25 -15 -16 0 -25 6 -25
15 0 9 9 15 25 15 16 0 25 -6 25 -15z"/>
<path d="M2110 4684 c0 -67 2 -74 20 -74 17 0 20 7 20 39 0 52 8 71 31 71 12
0 19 7 19 19 0 16 -7 19 -45 19 l-45 0 0 -74z"/>
<path d="M2227 4753 c-4 -3 -7 -13 -7 -20 0 -10 9 -12 34 -8 18 4 36 2 40 -3
3 -5 -8 -12 -26 -16 -39 -8 -58 -23 -58 -47 0 -32 27 -48 80 -47 l50 1 0 62
c0 34 -5 66 -12 73 -13 13 -90 17 -101 5z m73 -92 c0 -12 -29 -23 -41 -15 -5
3 -7 10 -4 15 8 12 45 12 45 0z"/>
<path d="M2370 4684 c0 -67 2 -74 19 -74 17 0 20 8 23 53 3 45 6 52 25 55 20
3 22 -2 25 -50 2 -41 7 -54 21 -56 15 -3 17 5 17 61 0 40 -5 69 -13 75 -7 6
-36 11 -65 10 l-52 0 0 -74z"/>
<path d="M2704 4752 c-16 -10 -34 -48 -34 -70 0 -33 38 -72 70 -72 39 0 60 9
60 27 0 9 -9 14 -22 13 -39 -4 -58 0 -58 9 0 6 19 11 42 13 49 3 60 24 34 63
-12 18 -25 25 -49 25 -17 0 -37 -4 -43 -8z m56 -32 c0 -5 -9 -10 -21 -10 -11
0 -17 5 -14 10 3 6 13 10 21 10 8 0 14 -4 14 -10z"/>
<path d="M2832 4687 c3 -64 5 -72 23 -72 17 0 20 8 23 53 3 43 6 52 22 52 16
0 19 -9 22 -52 2 -41 7 -54 21 -56 15 -3 17 5 17 61 0 40 -5 69 -13 75 -7 6
-36 11 -65 10 l-53 0 3 -71z"/>
<path d="M3002 4748 c-6 -6 -12 -19 -12 -28 0 -19 30 -50 48 -50 7 0 12 -7 12
-16 0 -12 -7 -14 -30 -9 -23 5 -30 3 -30 -9 0 -34 81 -32 100 3 14 26 3 49
-31 67 -36 18 -37 26 -1 22 19 -2 27 2 27 12 0 19 -65 26 -83 8z"/>
<path d="M3235 4740 c-27 -30 -25 -88 4 -111 26 -21 81 -25 99 -7 21 21 13 31
-22 25 -23 -4 -39 -1 -46 8 -9 11 -3 14 32 17 38 3 43 6 46 29 2 15 -4 34 -13
43 -23 23 -78 20 -100 -4z m70 -20 c4 -6 -5 -10 -20 -10 -15 0 -24 4 -20 10 3
6 12 10 20 10 8 0 17 -4 20 -10z"/>
<path d="M3380 4685 c0 -68 2 -75 20 -75 18 0 20 7 20 75 0 68 -2 75 -20 75
-18 0 -20 -7 -20 -75z"/>
<path d="M3452 4687 c3 -64 5 -72 23 -72 17 0 20 8 23 53 3 43 6 52 22 52 16
0 19 -9 22 -52 2 -41 7 -54 21 -56 15 -3 17 5 17 61 0 40 -5 69 -13 75 -7 6
-36 11 -65 10 l-53 0 3 -71z"/>
<path d="M2315 4464 c-162 -24 -247 -41 -344 -71 -406 -122 -681 -294 -934
-582 -188 -215 -289 -400 -385 -701 -50 -158 -64 -262 -69 -515 -8 -356 11
-464 128 -758 72 -181 97 -231 162 -327 158 -235 497 -549 706 -654 73 -37
238 -102 331 -129 326 -98 728 -113 1132 -42 319 56 709 271 954 527 127 132
255 310 327 453 45 92 132 358 164 504 21 98 26 152 30 342 8 341 -10 454
-114 724 -63 162 -178 371 -265 482 -204 262 -490 471 -843 618 -160 67 -241
88 -415 111 -111 15 -504 27 -565 18z m435 -65 c280 -25 399 -57 640 -171 453
-215 751 -517 930 -943 122 -290 145 -417 137 -765 -5 -244 -17 -329 -67 -499
-89 -300 -162 -441 -339 -660 -90 -111 -252 -266 -261 -250 -4 6 -12 4 -20 -6
-8 -10 -29 -15 -61 -15 -50 0 -76 -16 -37 -22 14 -2 2 -7 -29 -12 -29 -4 -57
-5 -64 -1 -14 9 40 58 91 83 19 9 56 38 83 64 26 26 51 48 56 48 11 0 71 80
71 94 0 10 -16 -4 -122 -108 -23 -23 -72 -52 -121 -73 -45 -20 -89 -41 -97
-48 -8 -7 -27 -15 -42 -19 -14 -3 -34 -9 -45 -12 -10 -4 5 14 32 39 l50 46
-75 -25 c-41 -13 -93 -37 -115 -53 -46 -32 -88 -34 -111 -5 -8 10 -13 13 -9 6
5 -9 0 -11 -18 -7 -18 5 -31 1 -44 -12 -11 -11 -24 -18 -29 -16 -5 2 -10 -9
-9 -24 0 -17 -5 -27 -12 -26 -7 2 -13 -2 -13 -7 0 -6 22 -8 55 -6 56 4 64 -1
43 -22 -9 -9 -9 -12 1 -12 7 0 10 -4 7 -9 -3 -4 -33 -11 -66 -15 -33 -4 -60
-12 -60 -18 0 -7 15 -8 43 -4 41 7 41 6 19 -9 -19 -14 -20 -18 -8 -31 17 -16
86 -19 136 -4 19 6 49 13 67 15 39 6 113 37 113 47 0 11 -23 10 -52 -1 -17 -6
-29 -5 -43 5 -23 17 -15 25 40 40 37 9 45 8 45 -3 0 -10 11 -12 45 -8 39 4 95
28 208 87 27 14 67 28 67 24 0 -5 -187 -123 -250 -159 -82 -46 -274 -126 -353
-146 -43 -11 -153 -32 -245 -47 -142 -23 -197 -27 -367 -27 -173 0 -220 4
-350 27 -82 15 -186 36 -230 47 -88 23 -277 95 -370 142 -185 92 -523 407
-668 619 -64 95 -96 159 -168 340 -104 260 -124 384 -116 727 7 325 33 452
153 730 87 203 207 374 388 553 78 78 213 189 257 212 13 7 55 31 92 54 186
115 537 230 777 255 79 8 333 6 440 -4z"/>
<path d="M2560 4340 c-11 -7 -4 -10 28 -10 23 0 42 5 42 10 0 13 -50 13 -70 0z"/>
<path d="M2323 4309 c-28 -5 -67 -18 -85 -29 -18 -11 -46 -26 -62 -34 -16 -7
-25 -16 -20 -19 12 -7 85 19 94 33 4 6 32 14 63 17 45 5 57 3 57 -8 0 -8 -13
-20 -28 -27 -16 -7 -47 -28 -69 -47 -29 -25 -56 -37 -94 -43 -30 -5 -74 -14
-99 -21 -25 -6 -57 -13 -72 -16 -32 -6 -94 -58 -103 -86 -4 -10 -13 -19 -21
-19 -8 0 -14 -4 -14 -9 0 -8 -54 -41 -68 -41 -2 0 -2 9 1 20 3 11 0 20 -6 20
-7 0 8 18 33 39 47 41 53 67 7 30 -27 -21 -38 -14 -15 9 10 10 10 15 -2 22 -9
6 -44 -7 -112 -41 -91 -47 -129 -73 -97 -68 8 1 25 -2 39 -8 l24 -10 -26 -24
c-14 -14 -38 -31 -53 -39 -25 -13 -28 -12 -55 17 -41 43 -66 50 -99 25 -22
-16 -26 -27 -24 -62 l2 -42 -39 7 c-45 8 -62 -11 -53 -59 5 -24 0 -34 -28 -57
-28 -23 -30 -27 -11 -22 26 6 28 -2 7 -24 -11 -10 -14 -25 -10 -47 5 -26 1
-38 -22 -62 -15 -16 -41 -39 -58 -51 -16 -12 -27 -24 -23 -28 4 -4 20 2 36 14
17 12 35 21 41 21 6 0 11 3 11 8 1 4 9 17 19 29 l18 22 38 -19 c21 -11 64 -22
96 -26 42 -5 59 -11 62 -23 2 -9 -23 -44 -58 -81 -47 -51 -78 -100 -141 -225
-45 -88 -91 -185 -102 -215 -25 -64 -62 -213 -62 -250 0 -17 -9 -31 -27 -42
-16 -10 -42 -30 -58 -45 -17 -15 -39 -35 -49 -43 -18 -14 -18 -13 -11 20 4 19
11 39 16 44 5 6 9 21 9 34 0 13 4 32 10 42 5 10 12 56 15 102 5 87 21 194 25
168 1 -8 2 -19 1 -23 -1 -5 3 -6 8 -3 17 11 21 -9 10 -48 -14 -51 -5 -69 14
-26 11 25 14 62 12 132 -3 75 0 101 11 112 8 8 14 21 14 29 0 22 12 28 28 14
11 -8 14 -8 9 0 -4 6 -1 14 5 16 8 3 6 6 -4 6 -10 1 -18 6 -18 12 0 5 5 7 11
3 8 -5 9 -2 1 12 -8 14 -6 21 6 32 10 7 11 11 5 7 -7 -3 -13 -2 -13 4 0 5 5
11 12 13 8 3 8 9 0 24 -10 17 -13 14 -30 -27 -25 -58 -36 -65 -50 -35 -8 18
-7 39 2 80 15 64 6 74 -17 19 -14 -36 -15 -37 -16 -10 -1 15 -5 27 -10 27 -13
0 -81 -86 -74 -94 4 -3 1 -6 -4 -6 -10 0 -26 -42 -58 -147 -9 -33 23 -30 35 3
6 14 14 22 20 19 5 -3 10 -1 10 6 0 10 3 10 11 2 9 -9 6 -23 -10 -55 -11 -25
-21 -51 -21 -59 0 -11 -2 -11 -8 -1 -14 21 -44 -95 -48 -187 -3 -47 -6 -95 -9
-106 -2 -11 0 -27 5 -35 5 -8 10 -13 11 -10 0 3 2 19 4 35 16 123 27 172 40
165 37 -17 47 -192 15 -255 -11 -22 -20 -51 -20 -65 0 -14 -14 -52 -30 -84
-23 -44 -30 -73 -30 -115 0 -35 -3 -51 -9 -42 -6 9 -12 -8 -20 -51 -20 -119
-24 -184 -12 -204 10 -16 11 -9 7 35 -5 52 -5 54 11 32 12 -17 18 -20 24 -10
13 21 22 -35 14 -86 -3 -25 -10 -43 -15 -40 -30 18 -40 -104 -15 -176 22 -63
89 -192 93 -179 2 6 -1 16 -6 23 -5 7 -19 43 -31 81 -16 52 -18 72 -10 82 10
12 15 10 30 -8 10 -13 25 -30 33 -38 8 -9 20 -27 26 -40 6 -14 20 -41 30 -60
10 -19 22 -51 26 -70 3 -19 12 -42 19 -50 6 -8 22 -41 34 -72 27 -67 78 -124
120 -133 36 -8 51 -24 48 -52 -1 -13 -6 -19 -15 -16 -11 5 -11 7 0 14 10 7 9
9 -4 9 -9 0 -18 -6 -20 -12 -3 -7 -13 0 -24 17 -25 39 -44 59 -50 52 -3 -3 -1
-15 6 -26 12 -23 1 -28 -18 -9 -9 9 -12 6 -12 -15 0 -34 35 -106 55 -114 8 -3
13 -8 11 -12 -6 -9 99 -111 113 -111 16 0 14 8 -9 32 -22 24 -27 43 -7 32 9
-6 9 -4 0 7 -24 25 -13 29 26 10 27 -14 45 -33 60 -67 12 -25 20 -49 17 -52
-3 -3 12 -13 34 -23 22 -10 51 -29 65 -42 31 -28 101 -53 170 -61 47 -5 49 -5
25 9 -14 8 -39 14 -56 15 -17 0 -37 7 -44 15 -7 8 -17 15 -23 15 -19 0 -56 42
-50 56 4 12 8 12 21 2 13 -11 14 -11 7 2 -8 13 -6 13 8 1 9 -7 40 -15 69 -17
76 -6 137 -24 151 -45 12 -16 118 -69 139 -69 20 0 -14 29 -60 51 -26 13 -71
38 -99 56 -29 18 -76 38 -105 43 -52 10 -117 48 -168 98 l-25 25 25 -13 c14
-8 37 -15 52 -16 15 -1 42 -13 60 -25 51 -36 14 4 -45 49 -29 21 -79 49 -112
62 -33 13 -69 32 -80 43 -11 11 -13 16 -5 12 8 -5 5 3 -8 17 l-23 25 28 11
c15 6 44 14 63 17 19 4 70 18 112 31 l77 25 63 -38 c136 -82 354 -183 448
-209 52 -14 129 -38 170 -54 95 -36 162 -45 220 -30 25 6 77 16 115 21 175 22
218 30 340 64 313 86 590 285 767 550 44 66 156 306 173 370 8 32 15 74 15 92
0 27 6 35 33 49 61 32 116 76 128 105 13 34 5 103 -16 135 -13 20 -11 24 24
47 l38 26 1 -44 c1 -26 -4 -45 -11 -48 -7 -2 -4 -3 6 -2 12 2 17 -4 17 -21 0
-13 -4 -24 -10 -24 -5 0 -10 -9 -10 -20 0 -25 20 -27 20 -2 1 12 5 9 16 -10
22 -42 32 -34 27 23 -2 31 0 49 6 45 5 -3 12 0 15 6 3 7 4 1 2 -15 -2 -15 1
-27 5 -27 5 0 9 8 9 18 1 15 2 15 12 -2 6 -10 8 -41 5 -70 -2 -28 -2 -42 0
-32 4 15 7 16 14 5 6 -10 9 -1 9 26 l1 40 15 -35 15 -35 14 25 c10 17 14 60
15 133 0 92 -2 107 -16 107 -14 0 -14 -3 -4 -15 11 -13 10 -14 -4 -9 -19 7
-21 23 -2 30 13 5 10 54 -4 54 -15 0 -31 -28 -20 -35 5 -3 10 -12 10 -18 0 -7
-4 -6 -11 3 -8 11 -9 9 -3 -10 4 -14 9 -30 11 -36 2 -7 0 -14 -5 -17 -4 -3
-14 10 -21 29 -7 18 -15 34 -19 34 -12 0 -8 55 5 68 7 7 13 21 13 30 1 12 5
10 15 -8 22 -38 18 -15 -5 27 -11 21 -20 48 -20 60 0 35 -27 123 -53 177 l-24
49 -5 -37 c-2 -21 0 -40 5 -43 5 -3 16 -21 24 -40 11 -27 11 -38 2 -49 -8 -10
-8 -14 0 -14 6 0 11 -5 11 -10 0 -6 -11 -3 -25 7 -13 10 -25 26 -25 36 0 10
-4 15 -10 12 -16 -10 -63 95 -62 140 0 41 -42 169 -64 194 -14 16 15 -110 33
-144 6 -11 9 -40 6 -65 -5 -42 12 -95 58 -182 11 -22 12 -41 0 -34 -14 9 -224
353 -391 641 -155 268 -196 338 -224 387 l-27 48 38 -22 c21 -12 57 -36 80
-55 23 -18 46 -33 51 -33 10 0 88 -99 98 -123 3 -8 -2 -14 -11 -14 -8 0 -15 4
-15 8 0 3 -9 9 -20 12 -11 3 -27 21 -35 41 -16 37 -25 46 -25 23 0 -26 82
-139 145 -199 35 -34 61 -66 59 -70 -3 -5 -1 -15 5 -22 8 -10 7 -17 -4 -26 -8
-7 -15 -17 -15 -23 0 -5 9 -2 19 7 19 17 39 7 27 -13 -10 -16 25 -72 43 -69
23 4 27 55 6 79 -10 10 -15 25 -12 34 7 18 27 20 27 3 0 -6 3 -8 7 -5 10 10
43 -23 43 -43 0 -10 7 -23 16 -31 13 -11 15 -9 11 12 -2 13 -2 18 0 12 3 -7
13 -13 24 -13 14 0 19 7 19 28 0 38 -37 134 -60 153 -11 9 -17 19 -14 22 8 7
-68 107 -77 101 -4 -2 -2 -17 4 -33 6 -17 16 -27 21 -23 6 3 5 -2 -2 -11 -8
-9 -11 -21 -7 -27 8 -13 -1 -13 -25 0 -21 11 -43 67 -29 75 5 4 5 13 -1 25 -5
10 -10 26 -10 36 0 21 -51 94 -101 143 -52 52 -159 115 -159 94 0 -6 18 -18
41 -28 51 -23 119 -89 119 -115 0 -11 0 -23 0 -27 0 -16 -26 -7 -43 14 -10 13
-27 23 -36 23 -10 0 -29 8 -42 19 -13 10 -41 24 -61 31 -21 8 -48 24 -61 36
-13 12 -32 24 -43 28 -11 3 -50 61 -95 139 -63 110 -82 135 -112 150 -35 18
-40 18 -86 2 -38 -12 -57 -14 -92 -5 -24 5 -67 12 -95 15 -29 2 -80 16 -114
30 -50 21 -187 47 -235 44 -18 -1 37 -19 70 -24 17 -2 50 -11 73 -20 33 -14
41 -22 40 -40 -1 -13 -7 -21 -12 -17 -6 3 -28 5 -51 5 -22 0 -30 1 -17 4 12 2
22 9 22 14 0 18 -32 22 -86 12 -49 -9 -54 -8 -54 9 0 14 -8 18 -42 19 -42 1
-107 16 -79 18 20 1 5 14 -22 18 -65 10 -128 10 -174 2z m400 -96 c-7 -2 -21
-2 -30 0 -10 3 -4 5 12 5 17 0 24 -2 18 -5z m364 -20 c8 -22 -26 -21 -41 2
-15 22 -15 23 11 16 15 -4 28 -12 30 -18z m-662 -2 c-3 -6 10 -8 32 -4 38 5
38 5 15 -12 -13 -9 -41 -19 -63 -22 -22 -3 -42 -10 -45 -14 -7 -12 192 -2 216
11 10 5 28 10 39 10 14 0 21 6 21 20 0 17 4 19 18 12 9 -5 43 -13 75 -17 l58
-7 -30 -34 c-32 -36 -46 -85 -39 -134 3 -17 2 -30 -1 -31 -3 0 -64 -2 -136 -4
-95 -2 -157 -10 -230 -28 -55 -13 -101 -23 -103 -21 -2 1 1 11 7 22 15 28 -1
68 -31 75 -29 8 -91 -6 -123 -27 l-24 -16 -3 63 -3 62 39 18 c21 9 60 17 86
17 33 0 54 6 70 20 13 11 35 23 49 26 14 3 35 9 46 14 27 12 68 12 60 1z
m-545 -237 c0 -14 -4 -23 -9 -20 -5 3 -7 15 -4 26 7 28 13 25 13 -6z m0 -79
c0 -32 -2 -35 -19 -25 -35 18 -88 12 -107 -12 -12 -17 -15 -18 -10 -5 3 10 6
25 6 33 0 8 3 13 8 12 4 -1 18 4 31 11 21 12 25 11 33 -4 9 -15 12 -15 29 4
26 28 29 27 29 -14z m-516 -150 c4 -11 -2 -15 -21 -15 -21 0 -24 2 -13 15 7 8
16 15 20 15 4 0 10 -7 14 -15z m1140 -259 c104 -108 355 -400 520 -605 133
-166 196 -249 382 -501 55 -74 129 -175 166 -225 93 -126 107 -137 173 -143
31 -2 55 -7 53 -11 -74 -158 -188 -315 -298 -410 -52 -45 -61 -50 -55 -30 9
31 51 86 73 98 10 5 31 34 48 63 25 46 29 63 29 128 -1 121 -41 178 -252 347
-56 45 -115 101 -130 124 -26 40 -28 50 -30 156 -2 146 -19 187 -100 237 -59
37 -133 69 -199 86 -56 14 -90 51 -134 145 -40 87 -101 170 -150 205 -48 34
-132 59 -252 76 -162 23 -199 39 -306 135 l-52 47 83 6 c168 14 219 26 254 61
18 18 33 43 33 55 0 12 5 30 10 41 15 28 39 13 134 -85z m-728 -126 c67 -30
163 -100 224 -165 67 -71 93 -78 300 -85 268 -10 277 -16 305 -200 27 -183 46
-199 274 -236 189 -30 186 -27 178 -180 -4 -66 -2 -127 4 -149 12 -44 79 -112
214 -220 114 -91 171 -153 184 -201 19 -71 -6 -120 -91 -174 -62 -40 -137 -63
-261 -78 -149 -19 -256 -97 -366 -267 -57 -88 -136 -174 -178 -191 -48 -21
-143 -17 -209 7 -57 22 -104 63 -271 241 -121 129 -207 146 -425 82 -210 -62
-231 -66 -303 -68 -52 -1 -69 2 -67 12 2 10 -2 10 -17 2 -16 -8 -26 -5 -51 16
-52 44 -61 81 -70 274 -7 163 -9 180 -38 255 -18 45 -46 103 -63 130 -63 98
-92 173 -97 250 -7 112 25 160 188 285 155 119 179 160 191 321 11 148 22 199
57 262 27 50 83 92 145 108 60 16 172 2 243 -31z m1336 -727 c20 -33 24 -55
28 -158 5 -107 9 -126 32 -166 15 -25 46 -63 68 -83 23 -21 40 -40 37 -42 -3
-3 -42 31 -88 74 l-84 80 -1 143 c0 94 -4 152 -12 167 -20 36 -6 25 20 -15z
m-2100 -612 c8 11 9 10 4 -5 -4 -11 1 -25 12 -35 11 -9 21 -23 24 -31 3 -8 4
12 2 45 l-4 60 20 -41 c23 -49 40 -150 40 -247 0 -76 -12 -81 -29 -11 -7 25
-30 83 -51 129 -31 64 -40 93 -39 131 2 33 3 39 6 20 4 -23 7 -26 15 -15z
m285 -803 c-3 -8 -6 -5 -6 6 -1 11 2 17 5 13 3 -3 4 -12 1 -19z"/>
<path d="M1820 2809 c-130 -21 -296 -143 -347 -254 -49 -107 -43 -307 13 -417
54 -106 133 -166 289 -219 91 -30 214 -32 298 -5 177 58 271 181 284 372 10
142 -23 253 -110 369 -89 120 -260 182 -427 154z m40 -189 c11 -7 6 -8 -17 -4
-23 5 -44 0 -73 -15 -48 -25 -53 -19 -7 9 35 22 73 25 97 10z m91 -17 c13 -16
12 -17 -3 -4 -10 7 -18 15 -18 17 0 8 8 3 21 -13z m-20 -34 c17 -33 7 -29 -26
9 -25 30 -26 33 -8 23 13 -6 28 -21 34 -32z m-239 -51 c-7 -7 -12 -8 -12 -2 0
6 3 14 7 17 3 4 9 5 12 2 2 -3 -1 -11 -7 -17z m259 -31 c-8 -8 -11 -3 -11 19
1 25 2 27 11 11 8 -14 8 -22 0 -30z m36 6 c-3 -10 -5 -4 -5 12 0 17 2 24 5 18
2 -7 2 -21 0 -30z m-224 -63 c7 -1 26 -7 42 -15 l30 -14 -30 6 c-39 8 -81 29
-106 54 -34 34 -20 37 17 3 19 -19 41 -34 47 -34z m162 -19 c-3 -6 -11 -11
-17 -11 -6 0 -6 6 2 15 14 17 26 13 15 -4z m35 -15 c0 -2 -8 -10 -17 -17 -16
-13 -17 -12 -4 4 13 16 21 21 21 13z m-67 -43 c-7 -2 -21 -2 -30 0 -10 3 -4 5
12 5 17 0 24 -2 18 -5z"/>
<path d="M1570 3980 c-12 -7 -12 -12 -3 -21 10 -10 14 -9 19 5 8 22 2 27 -16
16z"/>
<path d="M4227 2240 c-3 -19 -8 -60 -11 -92 -2 -31 -11 -67 -19 -80 -8 -12
-21 -48 -28 -78 -7 -30 -19 -64 -26 -75 -7 -11 -13 -31 -13 -46 0 -23 -26 -89
-35 -89 -2 0 -3 27 -2 60 1 33 1 60 0 60 -7 0 -74 -153 -79 -181 -10 -57 -26
-90 -40 -85 -8 3 -13 2 -13 -2 4 -26 -3 -32 -28 -26 -26 6 -26 5 -10 -8 20
-15 14 -48 -9 -48 -8 0 -14 -7 -14 -16 0 -8 5 -12 10 -9 15 9 12 -18 -5 -42
-13 -18 -13 -22 0 -26 8 -4 16 2 20 13 3 10 12 21 20 24 8 3 15 16 16 28 0 22
1 22 9 3 5 -11 9 -14 9 -7 1 7 5 11 11 7 5 -3 6 -13 3 -22 -4 -11 -3 -14 5 -9
21 13 12 -8 -18 -44 -17 -19 -30 -41 -30 -50 1 -10 9 -5 27 15 l26 30 -6 -33
-7 -34 33 19 c29 17 62 59 124 158 l22 35 -34 -4 c-25 -3 -35 -1 -35 9 0 25
42 96 54 92 13 -5 46 26 65 60 33 63 95 283 79 283 -3 0 -16 -33 -29 -72 -13
-40 -32 -81 -42 -91 -17 -17 -19 -17 -31 -2 -15 21 5 152 36 231 17 43 19 60
11 115 -9 59 -10 61 -16 29z"/>
<path d="M4185 1669 c-4 -11 -4 -23 -2 -26 9 -8 27 7 27 22 0 23 -18 27 -25 4z"/>
<path d="M2183 1000 c-13 -5 -23 -7 -23 -3 0 3 -7 0 -15 -7 -8 -7 -22 -10 -30
-6 -9 3 -13 2 -10 -4 3 -6 18 -10 33 -10 15 0 34 -5 42 -10 11 -7 11 -10 2
-10 -7 0 -10 -4 -7 -10 3 -5 -2 -10 -12 -11 -16 0 -16 -1 2 -9 32 -14 -45 -12
-84 1 -49 17 -49 2 0 -20 39 -18 41 -19 12 -14 -28 5 -33 3 -33 -15 0 -11 8
-23 18 -27 34 -13 158 -36 212 -40 49 -3 52 -3 23 7 -17 6 -34 19 -36 29 -5
17 1 19 46 18 62 -1 98 -10 98 -24 -1 -20 57 -26 193 -20 175 8 222 23 76 25
-76 0 -110 5 -124 15 -19 15 -19 15 3 15 12 0 19 4 16 10 -4 6 5 10 19 10 14
0 26 4 26 9 0 5 48 12 108 15 126 8 212 22 227 37 7 9 -9 9 -60 4 -64 -7 -163
-12 -397 -18 -47 -1 -84 1 -81 6 2 4 18 7 34 7 17 0 28 4 25 9 -3 5 16 12 42
17 l47 8 -54 6 c-52 6 -155 -2 -197 -15 -13 -4 -27 -1 -35 8 -19 19 -78 28
-106 17z m44 -6 c-3 -3 -12 -4 -19 -1 -8 3 -5 6 6 6 11 1 17 -2 13 -5z m0 -60
c-3 -3 -12 -4 -19 -1 -8 3 -5 6 6 6 11 1 17 -2 13 -5z"/>
</g>
</svg>
